<mxfile host="Electron" modified="2024-07-09T01:21:12.358Z" agent="Mozilla/5.0 (Windows NT 10.0; Win64; x64) AppleWebKit/537.36 (KHTML, like Gecko) draw.io/24.6.4 Chrome/124.0.6367.207 Electron/30.0.6 Safari/537.36" etag="BkSn1ip0n5mHOsUpvkbs" version="24.6.4" type="device" pages="2">
  <diagram id="Itiu-dP_4Uli9-ZgQIPQ" name="Pagina1">
    <mxGraphModel dx="753" dy="464" grid="1" gridSize="10" guides="1" tooltips="1" connect="1" arrows="1" fold="1" page="1" pageScale="1" pageWidth="827" pageHeight="1169" math="0" shadow="0">
      <root>
        <mxCell id="0" />
        <mxCell id="1" parent="0" />
        <mxCell id="FJINDedJuuXf2pH2ADtD-1" value="Core" style="shape=hexagon;perimeter=hexagonPerimeter2;whiteSpace=wrap;html=1;fixedSize=1;fillColor=#e3c800;fontColor=#000000;strokeColor=#B09500;gradientColor=none;rounded=1;shadow=0;textShadow=0;fontStyle=1" vertex="1" parent="1">
          <mxGeometry x="310" y="350" width="220" height="210" as="geometry" />
        </mxCell>
        <mxCell id="FJINDedJuuXf2pH2ADtD-2" value="Adapter" style="rounded=1;whiteSpace=wrap;html=1;fillColor=#d80073;rotation=-75;fontColor=#ffffff;strokeColor=#A50040;" vertex="1" parent="1">
          <mxGeometry x="180" y="360" width="80" height="30" as="geometry" />
        </mxCell>
        <mxCell id="FJINDedJuuXf2pH2ADtD-3" value="Service" style="rounded=1;whiteSpace=wrap;html=1;fillColor=#6d8764;rotation=-75;fontColor=#ffffff;strokeColor=#3A5431;" vertex="1" parent="1">
          <mxGeometry x="220" y="370" width="80" height="30" as="geometry" />
        </mxCell>
        <mxCell id="FJINDedJuuXf2pH2ADtD-4" value="Api Aluno" style="rounded=1;whiteSpace=wrap;html=1;fillColor=#76608a;fontColor=#ffffff;strokeColor=#432D57;" vertex="1" parent="1">
          <mxGeometry x="60" y="350" width="90" height="40" as="geometry" />
        </mxCell>
        <mxCell id="FJINDedJuuXf2pH2ADtD-5" value="" style="endArrow=classic;startArrow=classic;html=1;rounded=0;exitX=1;exitY=0.5;exitDx=0;exitDy=0;entryX=0.5;entryY=0;entryDx=0;entryDy=0;" edge="1" parent="1" source="FJINDedJuuXf2pH2ADtD-4" target="FJINDedJuuXf2pH2ADtD-2">
          <mxGeometry width="50" height="50" relative="1" as="geometry">
            <mxPoint x="300" y="400" as="sourcePoint" />
            <mxPoint x="350" y="350" as="targetPoint" />
          </mxGeometry>
        </mxCell>
        <mxCell id="FJINDedJuuXf2pH2ADtD-6" value="Service" style="rounded=1;whiteSpace=wrap;html=1;fillColor=#6d8764;rotation=-105;fontColor=#ffffff;strokeColor=#3A5431;" vertex="1" parent="1">
          <mxGeometry x="220" y="510" width="80" height="30" as="geometry" />
        </mxCell>
        <mxCell id="FJINDedJuuXf2pH2ADtD-7" value="Adapter" style="rounded=1;whiteSpace=wrap;html=1;fillColor=#d80073;rotation=-105;fontColor=#ffffff;strokeColor=#A50040;" vertex="1" parent="1">
          <mxGeometry x="180" y="520" width="80" height="30" as="geometry" />
        </mxCell>
        <mxCell id="FJINDedJuuXf2pH2ADtD-8" value="Api Curso" style="rounded=1;whiteSpace=wrap;html=1;fillColor=#76608a;fontColor=#ffffff;strokeColor=#432D57;" vertex="1" parent="1">
          <mxGeometry x="60" y="520" width="90" height="40" as="geometry" />
        </mxCell>
        <mxCell id="FJINDedJuuXf2pH2ADtD-9" value="" style="endArrow=classic;startArrow=classic;html=1;rounded=0;exitX=1;exitY=0.5;exitDx=0;exitDy=0;entryX=0.5;entryY=0;entryDx=0;entryDy=0;" edge="1" parent="1" source="FJINDedJuuXf2pH2ADtD-8" target="FJINDedJuuXf2pH2ADtD-7">
          <mxGeometry width="50" height="50" relative="1" as="geometry">
            <mxPoint x="270" y="400" as="sourcePoint" />
            <mxPoint x="320" y="350" as="targetPoint" />
          </mxGeometry>
        </mxCell>
        <mxCell id="FJINDedJuuXf2pH2ADtD-10" value="Port" style="rounded=1;whiteSpace=wrap;html=1;fillColor=#e51400;rotation=-75;fontColor=#ffffff;strokeColor=#B20000;fontStyle=0" vertex="1" parent="1">
          <mxGeometry x="260" y="380" width="80" height="30" as="geometry" />
        </mxCell>
        <mxCell id="FJINDedJuuXf2pH2ADtD-11" value="Port" style="rounded=1;whiteSpace=wrap;html=1;fillColor=#e51400;rotation=-105;fontColor=#ffffff;strokeColor=#B20000;" vertex="1" parent="1">
          <mxGeometry x="260" y="500" width="80" height="30" as="geometry" />
        </mxCell>
        <mxCell id="FJINDedJuuXf2pH2ADtD-12" value="Port" style="rounded=1;whiteSpace=wrap;html=1;fillColor=#e51400;rotation=75;fontColor=#ffffff;strokeColor=#B20000;" vertex="1" parent="1">
          <mxGeometry x="500" y="380" width="80" height="30" as="geometry" />
        </mxCell>
        <mxCell id="FJINDedJuuXf2pH2ADtD-13" value="Service" style="rounded=1;whiteSpace=wrap;html=1;fillColor=#6d8764;rotation=75;fontColor=#ffffff;strokeColor=#3A5431;" vertex="1" parent="1">
          <mxGeometry x="540" y="370" width="80" height="30" as="geometry" />
        </mxCell>
        <mxCell id="FJINDedJuuXf2pH2ADtD-14" value="Adapter" style="rounded=1;whiteSpace=wrap;html=1;fillColor=#d80073;rotation=75;fontColor=#ffffff;strokeColor=#A50040;" vertex="1" parent="1">
          <mxGeometry x="580" y="360" width="80" height="30" as="geometry" />
        </mxCell>
        <mxCell id="FJINDedJuuXf2pH2ADtD-15" value="MySql" style="shape=cylinder3;whiteSpace=wrap;html=1;boundedLbl=1;backgroundOutline=1;size=15;" vertex="1" parent="1">
          <mxGeometry x="695" y="320" width="50" height="70" as="geometry" />
        </mxCell>
        <mxCell id="FJINDedJuuXf2pH2ADtD-16" value="Redis Cache" style="image;sketch=0;aspect=fixed;html=1;points=[];align=center;fontSize=12;image=img/lib/mscae/Cache_Redis_Product.svg;" vertex="1" parent="1">
          <mxGeometry x="695" y="540" width="50" height="42" as="geometry" />
        </mxCell>
        <mxCell id="FJINDedJuuXf2pH2ADtD-17" value="" style="endArrow=none;dashed=1;html=1;dashPattern=1 3;strokeWidth=2;rounded=0;entryX=0.5;entryY=1;entryDx=0;entryDy=0;entryPerimeter=0;" edge="1" parent="1" source="FJINDedJuuXf2pH2ADtD-16" target="FJINDedJuuXf2pH2ADtD-15">
          <mxGeometry width="50" height="50" relative="1" as="geometry">
            <mxPoint x="350" y="480" as="sourcePoint" />
            <mxPoint x="400" y="430" as="targetPoint" />
          </mxGeometry>
        </mxCell>
        <mxCell id="FJINDedJuuXf2pH2ADtD-18" value="Condutores" style="text;html=1;align=center;verticalAlign=middle;whiteSpace=wrap;rounded=0;" vertex="1" parent="1">
          <mxGeometry x="67.5" y="260" width="75" height="40" as="geometry" />
        </mxCell>
        <mxCell id="FJINDedJuuXf2pH2ADtD-19" value="Conduzidos" style="text;html=1;align=center;verticalAlign=middle;whiteSpace=wrap;rounded=0;" vertex="1" parent="1">
          <mxGeometry x="685" y="260" width="60" height="30" as="geometry" />
        </mxCell>
        <mxCell id="FJINDedJuuXf2pH2ADtD-20" value="Port" style="rounded=1;whiteSpace=wrap;html=1;fillColor=#e51400;rotation=105;fontColor=#ffffff;strokeColor=#B20000;" vertex="1" parent="1">
          <mxGeometry x="500" y="500" width="80" height="30" as="geometry" />
        </mxCell>
        <mxCell id="FJINDedJuuXf2pH2ADtD-21" value="Service" style="rounded=1;whiteSpace=wrap;html=1;fillColor=#6d8764;rotation=105;fontColor=#ffffff;strokeColor=#3A5431;" vertex="1" parent="1">
          <mxGeometry x="540" y="510" width="80" height="30" as="geometry" />
        </mxCell>
        <mxCell id="FJINDedJuuXf2pH2ADtD-22" value="Adapter" style="rounded=1;whiteSpace=wrap;html=1;fillColor=#d80073;rotation=105;fontColor=#ffffff;strokeColor=#A50040;" vertex="1" parent="1">
          <mxGeometry x="580" y="520" width="80" height="30" as="geometry" />
        </mxCell>
        <mxCell id="FJINDedJuuXf2pH2ADtD-23" value="" style="endArrow=classic;startArrow=classic;html=1;rounded=0;exitX=0.5;exitY=0;exitDx=0;exitDy=0;entryX=0.02;entryY=0.524;entryDx=0;entryDy=0;entryPerimeter=0;" edge="1" parent="1" source="FJINDedJuuXf2pH2ADtD-22" target="FJINDedJuuXf2pH2ADtD-16">
          <mxGeometry width="50" height="50" relative="1" as="geometry">
            <mxPoint x="630" y="561" as="sourcePoint" />
            <mxPoint x="690" y="570" as="targetPoint" />
          </mxGeometry>
        </mxCell>
        <mxCell id="FJINDedJuuXf2pH2ADtD-24" value="" style="endArrow=classic;html=1;rounded=0;entryX=0;entryY=0.5;entryDx=0;entryDy=0;entryPerimeter=0;exitX=0.5;exitY=0;exitDx=0;exitDy=0;" edge="1" parent="1" source="FJINDedJuuXf2pH2ADtD-14" target="FJINDedJuuXf2pH2ADtD-15">
          <mxGeometry width="50" height="50" relative="1" as="geometry">
            <mxPoint x="410" y="560" as="sourcePoint" />
            <mxPoint x="460" y="510" as="targetPoint" />
          </mxGeometry>
        </mxCell>
      </root>
    </mxGraphModel>
  </diagram>
  <diagram name="Pagina2" id="M_JicbONSloIqNRJly7W">
    <mxGraphModel dx="989" dy="609" grid="1" gridSize="10" guides="1" tooltips="1" connect="1" arrows="1" fold="1" page="1" pageScale="1" pageWidth="827" pageHeight="1169" math="0" shadow="0">
      <root>
        <mxCell id="0" />
        <mxCell id="1" parent="0" />
        <mxCell id="CG2hIB7o955s2yZVYA5d-9" value="Aluno" style="swimlane;fontStyle=0;childLayout=stackLayout;horizontal=1;startSize=30;horizontalStack=0;resizeParent=1;resizeParentMax=0;resizeLast=0;collapsible=1;marginBottom=0;whiteSpace=wrap;html=1;" vertex="1" parent="1">
          <mxGeometry x="60" y="530" width="150" height="120" as="geometry" />
        </mxCell>
        <mxCell id="CG2hIB7o955s2yZVYA5d-10" value="&lt;div&gt;IdAluno&lt;/div&gt;Nome&lt;div&gt;Telefone&lt;/div&gt;&lt;div&gt;&lt;span style=&quot;background-color: initial;&quot;&gt;Email&lt;/span&gt;&lt;br&gt;&lt;/div&gt;&lt;div&gt;HistoricoEscolar (unique)&lt;/div&gt;&lt;div&gt;Endereco&lt;/div&gt;" style="text;strokeColor=none;fillColor=none;align=left;verticalAlign=middle;spacingLeft=4;spacingRight=4;overflow=hidden;points=[[0,0.5],[1,0.5]];portConstraint=eastwest;rotatable=0;whiteSpace=wrap;html=1;" vertex="1" parent="CG2hIB7o955s2yZVYA5d-9">
          <mxGeometry y="30" width="150" height="90" as="geometry" />
        </mxCell>
        <mxCell id="CG2hIB7o955s2yZVYA5d-13" value="Curso" style="swimlane;fontStyle=0;childLayout=stackLayout;horizontal=1;startSize=30;horizontalStack=0;resizeParent=1;resizeParentMax=0;resizeLast=0;collapsible=1;marginBottom=0;whiteSpace=wrap;html=1;" vertex="1" parent="1">
          <mxGeometry x="315" y="330" width="140" height="120" as="geometry" />
        </mxCell>
        <mxCell id="CG2hIB7o955s2yZVYA5d-14" value="&lt;div&gt;IdCurso&lt;/div&gt;NomeCurso&lt;div&gt;&lt;span style=&quot;background-color: initial;&quot;&gt;List&amp;lt;Disciplina&amp;gt;&lt;/span&gt;&lt;br&gt;&lt;/div&gt;" style="text;strokeColor=none;fillColor=none;align=left;verticalAlign=middle;spacingLeft=4;spacingRight=4;overflow=hidden;points=[[0,0.5],[1,0.5]];portConstraint=eastwest;rotatable=0;whiteSpace=wrap;html=1;" vertex="1" parent="CG2hIB7o955s2yZVYA5d-13">
          <mxGeometry y="30" width="140" height="90" as="geometry" />
        </mxCell>
        <mxCell id="CG2hIB7o955s2yZVYA5d-15" value="HistoricoEscolar" style="swimlane;fontStyle=0;childLayout=stackLayout;horizontal=1;startSize=30;horizontalStack=0;resizeParent=1;resizeParentMax=0;resizeLast=0;collapsible=1;marginBottom=0;whiteSpace=wrap;html=1;" vertex="1" parent="1">
          <mxGeometry x="300" y="735" width="170" height="120" as="geometry" />
        </mxCell>
        <mxCell id="CG2hIB7o955s2yZVYA5d-16" value="IdHistoricoEscolar&lt;div&gt;Aluno&lt;/div&gt;&lt;div&gt;List&amp;lt;Atividade&amp;gt; atividades&lt;/div&gt;" style="text;strokeColor=none;fillColor=none;align=left;verticalAlign=middle;spacingLeft=4;spacingRight=4;overflow=hidden;points=[[0,0.5],[1,0.5]];portConstraint=eastwest;rotatable=0;whiteSpace=wrap;html=1;" vertex="1" parent="CG2hIB7o955s2yZVYA5d-15">
          <mxGeometry y="30" width="170" height="90" as="geometry" />
        </mxCell>
        <mxCell id="CG2hIB7o955s2yZVYA5d-19" value="Atividade" style="swimlane;fontStyle=0;childLayout=stackLayout;horizontal=1;startSize=30;horizontalStack=0;resizeParent=1;resizeParentMax=0;resizeLast=0;collapsible=1;marginBottom=0;whiteSpace=wrap;html=1;" vertex="1" parent="1">
          <mxGeometry x="320" y="530" width="140" height="120" as="geometry" />
        </mxCell>
        <mxCell id="CG2hIB7o955s2yZVYA5d-20" value="&lt;div&gt;IdAtividade&lt;/div&gt;&lt;div&gt;Titulo&lt;/div&gt;&lt;div&gt;Curso&lt;/div&gt;&lt;div&gt;Aluno&lt;/div&gt;&lt;div&gt;Nota&lt;/div&gt;" style="text;strokeColor=none;fillColor=none;align=left;verticalAlign=middle;spacingLeft=4;spacingRight=4;overflow=hidden;points=[[0,0.5],[1,0.5]];portConstraint=eastwest;rotatable=0;whiteSpace=wrap;html=1;" vertex="1" parent="CG2hIB7o955s2yZVYA5d-19">
          <mxGeometry y="30" width="140" height="90" as="geometry" />
        </mxCell>
        <mxCell id="CG2hIB7o955s2yZVYA5d-27" value="Disciplina" style="swimlane;fontStyle=0;childLayout=stackLayout;horizontal=1;startSize=30;horizontalStack=0;resizeParent=1;resizeParentMax=0;resizeLast=0;collapsible=1;marginBottom=0;whiteSpace=wrap;html=1;" vertex="1" parent="1">
          <mxGeometry x="550" y="330" width="140" height="120" as="geometry" />
        </mxCell>
        <mxCell id="CG2hIB7o955s2yZVYA5d-28" value="&lt;div&gt;IdDisciplina&lt;/div&gt;&lt;div&gt;Titulo&lt;/div&gt;&lt;div&gt;Horario&lt;/div&gt;&lt;div&gt;Professor&lt;/div&gt;&lt;div&gt;MateriaisDidaticos&lt;/div&gt;" style="text;strokeColor=none;fillColor=none;align=left;verticalAlign=middle;spacingLeft=4;spacingRight=4;overflow=hidden;points=[[0,0.5],[1,0.5]];portConstraint=eastwest;rotatable=0;whiteSpace=wrap;html=1;" vertex="1" parent="CG2hIB7o955s2yZVYA5d-27">
          <mxGeometry y="30" width="140" height="90" as="geometry" />
        </mxCell>
        <mxCell id="CG2hIB7o955s2yZVYA5d-30" value="" style="endArrow=classic;html=1;rounded=0;exitX=1;exitY=0.402;exitDx=0;exitDy=0;exitPerimeter=0;entryX=-0.006;entryY=0.393;entryDx=0;entryDy=0;entryPerimeter=0;" edge="1" parent="1" source="CG2hIB7o955s2yZVYA5d-14" target="CG2hIB7o955s2yZVYA5d-28">
          <mxGeometry width="50" height="50" relative="1" as="geometry">
            <mxPoint x="300" y="610" as="sourcePoint" />
            <mxPoint x="350" y="560" as="targetPoint" />
          </mxGeometry>
        </mxCell>
        <mxCell id="CG2hIB7o955s2yZVYA5d-31" value="Professor" style="swimlane;fontStyle=0;childLayout=stackLayout;horizontal=1;startSize=30;horizontalStack=0;resizeParent=1;resizeParentMax=0;resizeLast=0;collapsible=1;marginBottom=0;whiteSpace=wrap;html=1;" vertex="1" parent="1">
          <mxGeometry x="550" y="130" width="140" height="120" as="geometry" />
        </mxCell>
        <mxCell id="CG2hIB7o955s2yZVYA5d-32" value="&lt;div&gt;IdProfessor&lt;/div&gt;&lt;div&gt;Nome&lt;/div&gt;&lt;div&gt;Email&lt;/div&gt;" style="text;strokeColor=none;fillColor=none;align=left;verticalAlign=middle;spacingLeft=4;spacingRight=4;overflow=hidden;points=[[0,0.5],[1,0.5]];portConstraint=eastwest;rotatable=0;whiteSpace=wrap;html=1;" vertex="1" parent="CG2hIB7o955s2yZVYA5d-31">
          <mxGeometry y="30" width="140" height="90" as="geometry" />
        </mxCell>
        <mxCell id="CG2hIB7o955s2yZVYA5d-34" value="" style="endArrow=classic;html=1;rounded=0;exitX=0.488;exitY=1.015;exitDx=0;exitDy=0;exitPerimeter=0;" edge="1" parent="1" source="CG2hIB7o955s2yZVYA5d-32">
          <mxGeometry width="50" height="50" relative="1" as="geometry">
            <mxPoint x="300" y="410" as="sourcePoint" />
            <mxPoint x="618" y="331" as="targetPoint" />
          </mxGeometry>
        </mxCell>
        <mxCell id="CG2hIB7o955s2yZVYA5d-35" value="" style="endArrow=classic;html=1;rounded=0;exitX=1;exitY=0.5;exitDx=0;exitDy=0;entryX=0;entryY=0.5;entryDx=0;entryDy=0;" edge="1" parent="1" source="CG2hIB7o955s2yZVYA5d-10" target="CG2hIB7o955s2yZVYA5d-20">
          <mxGeometry width="50" height="50" relative="1" as="geometry">
            <mxPoint x="300" y="580" as="sourcePoint" />
            <mxPoint x="350" y="530" as="targetPoint" />
          </mxGeometry>
        </mxCell>
        <mxCell id="CG2hIB7o955s2yZVYA5d-38" value="" style="endArrow=classic;html=1;rounded=0;exitX=0.464;exitY=1;exitDx=0;exitDy=0;exitPerimeter=0;" edge="1" parent="1">
          <mxGeometry width="50" height="50" relative="1" as="geometry">
            <mxPoint x="384.58000000000004" y="460" as="sourcePoint" />
            <mxPoint x="384.62" y="530" as="targetPoint" />
          </mxGeometry>
        </mxCell>
        <mxCell id="CG2hIB7o955s2yZVYA5d-39" value="" style="endArrow=classic;html=1;rounded=0;exitX=0.456;exitY=1.015;exitDx=0;exitDy=0;exitPerimeter=0;entryX=0;entryY=0.5;entryDx=0;entryDy=0;" edge="1" parent="1" source="CG2hIB7o955s2yZVYA5d-10" target="CG2hIB7o955s2yZVYA5d-16">
          <mxGeometry width="50" height="50" relative="1" as="geometry">
            <mxPoint x="300" y="740" as="sourcePoint" />
            <mxPoint x="350" y="690" as="targetPoint" />
            <Array as="points">
              <mxPoint x="128" y="810" />
            </Array>
          </mxGeometry>
        </mxCell>
        <mxCell id="CG2hIB7o955s2yZVYA5d-40" value="" style="endArrow=classic;html=1;rounded=0;exitX=0.435;exitY=1.024;exitDx=0;exitDy=0;exitPerimeter=0;" edge="1" parent="1" source="CG2hIB7o955s2yZVYA5d-20">
          <mxGeometry width="50" height="50" relative="1" as="geometry">
            <mxPoint x="300" y="580" as="sourcePoint" />
            <mxPoint x="381" y="730" as="targetPoint" />
          </mxGeometry>
        </mxCell>
        <mxCell id="CG2hIB7o955s2yZVYA5d-48" value="Endereco" style="swimlane;fontStyle=0;childLayout=stackLayout;horizontal=1;startSize=30;horizontalStack=0;resizeParent=1;resizeParentMax=0;resizeLast=0;collapsible=1;marginBottom=0;whiteSpace=wrap;html=1;" vertex="1" parent="1">
          <mxGeometry x="60" y="300" width="140" height="160" as="geometry" />
        </mxCell>
        <mxCell id="CG2hIB7o955s2yZVYA5d-49" value="IdEndereco&lt;div&gt;&lt;div&gt;&lt;span style=&quot;background-color: initial;&quot;&gt;Cep&lt;/span&gt;&lt;br&gt;&lt;/div&gt;&lt;div&gt;UF&lt;/div&gt;&lt;div&gt;Cidade&lt;/div&gt;&lt;div&gt;Bairro&lt;/div&gt;&lt;div&gt;Logradouro&lt;/div&gt;&lt;div&gt;Complemento&lt;/div&gt;&lt;/div&gt;" style="text;strokeColor=none;fillColor=none;align=left;verticalAlign=middle;spacingLeft=4;spacingRight=4;overflow=hidden;points=[[0,0.5],[1,0.5]];portConstraint=eastwest;rotatable=0;whiteSpace=wrap;html=1;" vertex="1" parent="CG2hIB7o955s2yZVYA5d-48">
          <mxGeometry y="30" width="140" height="130" as="geometry" />
        </mxCell>
        <mxCell id="CG2hIB7o955s2yZVYA5d-53" value="" style="endArrow=classic;html=1;rounded=0;exitX=0.522;exitY=1.011;exitDx=0;exitDy=0;exitPerimeter=0;entryX=0.5;entryY=0;entryDx=0;entryDy=0;" edge="1" parent="1" source="CG2hIB7o955s2yZVYA5d-49" target="CG2hIB7o955s2yZVYA5d-9">
          <mxGeometry width="50" height="50" relative="1" as="geometry">
            <mxPoint x="570" y="440" as="sourcePoint" />
            <mxPoint x="620" y="390" as="targetPoint" />
          </mxGeometry>
        </mxCell>
      </root>
    </mxGraphModel>
  </diagram>
</mxfile>
